<svg width="1024" height="1024" viewBox="0 0 1024 1024" fill="none" xmlns="http://www.w3.org/2000/svg" role="img" aria-labelledby="title desc">
  <title id="title">Property Scanner Logo</title>
  <desc id="desc">Colorful app icon with an abstract ribbon monogram and contemporary gradient field.</desc>
  <defs>
    <linearGradient id="surface" x1="118" y1="102" x2="900" y2="922" gradientUnits="userSpaceOnUse">
      <stop stop-color="#C6FF6A"/>
      <stop offset="0.24" stop-color="#63F0D7"/>
      <stop offset="0.58" stop-color="#4E79FF"/>
      <stop offset="1" stop-color="#FF6FB5"/>
    </linearGradient>
    <radialGradient id="topGlow" cx="0" cy="0" r="1" gradientUnits="userSpaceOnUse" gradientTransform="translate(244 214) rotate(42) scale(444 352)">
      <stop stop-color="#FFFFFF" stop-opacity="0.84"/>
      <stop offset="0.46" stop-color="#FFFFFF" stop-opacity="0.18"/>
      <stop offset="1" stop-color="#FFFFFF" stop-opacity="0"/>
    </radialGradient>
    <radialGradient id="bottomGlow" cx="0" cy="0" r="1" gradientUnits="userSpaceOnUse" gradientTransform="translate(786 792) rotate(-137) scale(438 398)">
      <stop stop-color="#FFD59A" stop-opacity="0.82"/>
      <stop offset="0.48" stop-color="#FF946A" stop-opacity="0.28"/>
      <stop offset="1" stop-color="#FF946A" stop-opacity="0"/>
    </radialGradient>
    <radialGradient id="depth" cx="0" cy="0" r="1" gradientUnits="userSpaceOnUse" gradientTransform="translate(668 526) rotate(124) scale(554 610)">
      <stop stop-color="#557BFF" stop-opacity="0"/>
      <stop offset="0.58" stop-color="#2848BA" stop-opacity="0.08"/>
      <stop offset="1" stop-color="#101D5A" stop-opacity="0.34"/>
    </radialGradient>
    <linearGradient id="wave" x1="192" y1="292" x2="756" y2="654" gradientUnits="userSpaceOnUse">
      <stop stop-color="#FFFFFF" stop-opacity="0.18"/>
      <stop offset="0.52" stop-color="#FFFFFF" stop-opacity="0.04"/>
      <stop offset="1" stop-color="#FFFFFF" stop-opacity="0"/>
    </linearGradient>
    <linearGradient id="rim" x1="148" y1="126" x2="844" y2="892" gradientUnits="userSpaceOnUse">
      <stop stop-color="#FFFFFF" stop-opacity="0.7"/>
      <stop offset="1" stop-color="#FFFFFF" stop-opacity="0.12"/>
    </linearGradient>
    <linearGradient id="beam" x1="498" y1="410" x2="550" y2="636" gradientUnits="userSpaceOnUse">
      <stop stop-color="#D9FFFF"/>
      <stop offset="1" stop-color="#6EE8FF"/>
    </linearGradient>
    <filter id="shadow" x="22" y="28" width="980" height="980" filterUnits="userSpaceOnUse" color-interpolation-filters="sRGB">
      <feDropShadow dx="0" dy="20" stdDeviation="24" flood-color="#081126" flood-opacity="0.22"/>
    </filter>
    <filter id="symbolShadow" x="208" y="222" width="554" height="534" filterUnits="userSpaceOnUse" color-interpolation-filters="sRGB">
      <feDropShadow dx="0" dy="12" stdDeviation="14" flood-color="#14286E" flood-opacity="0.18"/>
    </filter>
  </defs>

  <g filter="url(#shadow)">
    <rect x="72" y="72" width="880" height="880" rx="228" fill="url(#surface)"/>
    <rect x="72" y="72" width="880" height="880" rx="228" fill="url(#topGlow)"/>
    <rect x="72" y="72" width="880" height="880" rx="228" fill="url(#bottomGlow)"/>
    <rect x="72" y="72" width="880" height="880" rx="228" fill="url(#depth)"/>
    <path d="M176 332C272 254 456 234 658 284C566 300 486 344 416 432C336 404 250 372 176 332Z" fill="url(#wave)"/>
    <rect x="73.5" y="73.5" width="877" height="877" rx="226.5" stroke="url(#rim)" stroke-width="3"/>
  </g>

  <g filter="url(#symbolShadow)">
    <path d="M388 304H492C610 304 684 376 684 486C684 596 610 668 492 668H336V356" stroke="#FFFFFF" stroke-width="76" stroke-linecap="round" stroke-linejoin="round"/>
    <rect x="498" y="420" width="30" height="176" rx="15" fill="url(#beam)"/>
  </g>
</svg>
